<?xml version="1.0" encoding="utf-8"?>
<!-- Generator: Adobe Illustrator 16.0.0, SVG Export Plug-In . SVG Version: 6.00 Build 0)  -->
<!DOCTYPE svg PUBLIC "-//W3C//DTD SVG 1.1//EN" "http://www.w3.org/Graphics/SVG/1.1/DTD/svg11.dtd">
<svg version="1.1" xmlns="http://www.w3.org/2000/svg" xmlns:xlink="http://www.w3.org/1999/xlink" x="0px" y="0px" width="611px"
	 height="446px" viewBox="0 0 611 446" enable-background="new 0 0 611 446" xml:space="preserve">
<g id="Arrows">
	<g opacity="0.4">
		<path fill="none" stroke="#E6E6E6" stroke-width="5" stroke-miterlimit="1" d="M445.012,223.689
			c14.359-65.602-27.965-126.438-94.63-136.017"/>
		<line fill="none" stroke="#E6E6E6" stroke-width="5" stroke-miterlimit="1" x1="346.105" y1="85.94" x2="354.73" y2="94.122"/>
		<line fill="none" stroke="#E6E6E6" stroke-width="5" stroke-miterlimit="1" x1="347.32" y1="87.673" x2="357.025" y2="83.359"/>
		
			<line fill="none" stroke="#E6E6E6" stroke-width="5" stroke-miterlimit="1" x1="441.951" y1="228.172" x2="452.441" y2="221.576"/>
		
			<line fill="none" stroke="#E6E6E6" stroke-width="5" stroke-miterlimit="1" x1="444.145" y1="227.271" x2="439.281" y2="219.214"/>
	</g>
	<g opacity="0.4">
		<path fill="none" stroke="#E6E6E6" stroke-width="5" stroke-miterlimit="1" d="M56.535,223.689
			C42.176,158.087,84.5,97.252,151.165,87.673"/>
		<line fill="none" stroke="#E6E6E6" stroke-width="5" stroke-miterlimit="1" x1="155.441" y1="85.94" x2="146.816" y2="94.122"/>
		<line fill="none" stroke="#E6E6E6" stroke-width="5" stroke-miterlimit="1" x1="154.227" y1="87.673" x2="144.521" y2="83.359"/>
		<line fill="none" stroke="#E6E6E6" stroke-width="5" stroke-miterlimit="1" x1="59.596" y1="228.172" x2="49.105" y2="221.576"/>
		<line fill="none" stroke="#E6E6E6" stroke-width="5" stroke-miterlimit="1" x1="57.402" y1="227.271" x2="62.266" y2="219.214"/>
	</g>
</g>
<g id="Cloud">
	<path opacity="0.4" fill="#FFFFFF" stroke="#4D4D4D" stroke-width="2" stroke-miterlimit="1" d="M314.09,63.28
		c-4.012,0-7.806,0.884-11.186,2.454c-0.322-8.108-7.291-14.593-15.867-14.593c-2.533,0-4.918,0.58-7.044,1.586
		c-3.54-18.083-23.53-31.932-47.658-31.932c-26.63,0-48.218,16.867-48.218,37.678c0,4.521,1.021,8.855,2.891,12.872
		c-0.997-0.111-2.012-0.176-3.043-0.176c-12.994,0-23.529,9.163-23.529,20.466c0,11.304,10.535,20.966,23.529,20.966
		c0.791,0,1.572,0.398,2.344,0.398h125.504c0.75,0,1.509-0.398,2.277-0.398c14.125,0,25.576-11.178,25.576-24.659
		S328.215,63.28,314.09,63.28z"/>
</g>
<g id="Laptop">
	<g opacity="0.4">
		<path fill="#333333" stroke="#E6E6E6" stroke-width="16" stroke-miterlimit="1" d="M318,392v17.425
			c0,6.867,5.373,12.575,12,12.575h218c6.627,0,12-5.708,12-12.575V262.282c0-6.867-5.373-12.282-12-12.282H330
			c-6.627,0-12,5.415-12,12.282V392"/>
		<path fill="#E6E6E6" d="M596,419.109c0,6.627-5.547,11.891-12.388,11.891h-288.02c-6.841,0-12.593-5.264-12.593-11.891v-2
			c0-6.627,5.752-12.109,12.593-12.109h288.02c6.841,0,12.388,5.482,12.388,12.109V419.109z"/>
		<circle fill="#999999" cx="442.898" cy="247.519" r="3.846"/>
		<rect x="410" y="417" fill="#999999" width="66" height="5"/>
	</g>
</g>
<g id="iPhone">
	<g opacity="0.4">
		<path fill="#E6E6E6" stroke="#333333" stroke-miterlimit="1" d="M101.5,407.65c0,7.79-4.873,14.85-11.5,14.85H25
			c-6.627,0-12.5-7.06-12.5-14.85V264.246c0-7.791,5.873-13.746,12.5-13.746h65c6.627,0,11.5,5.955,11.5,13.746V407.65z"/>
		<rect x="20" y="272" fill="#333333" width="76" height="125"/>
		<circle fill="#808080" cx="58.244" cy="408.948" r="8.013"/>
		<rect x="50" y="259" fill="#999999" width="17" height="3"/>
	</g>
</g>
</svg>
